<svg width="313" height="240" viewBox="0 0 313 240" fill="none" xmlns="http://www.w3.org/2000/svg">
<g filter="url(#filter0_d)">
<rect x="30" y="28" width="253" height="180" rx="18" fill="white"/>
</g>
<path d="M79.108 159.991L79.414 161.071C79.042 161.347 78.55 161.485 77.938 161.485C77.422 161.485 76.954 161.365 76.534 161.125C76.114 160.885 75.706 160.477 75.31 159.901L72.916 156.373C72.76 156.145 72.574 155.959 72.358 155.815C72.142 155.659 71.92 155.581 71.692 155.581H71.26V161.377H69.892V148.597H73.492C74.92 148.597 76.012 148.909 76.768 149.533C77.536 150.145 77.92 150.985 77.92 152.053C77.92 152.821 77.728 153.463 77.344 153.979C76.972 154.495 76.468 154.885 75.832 155.149C75.196 155.413 74.494 155.545 73.726 155.545H73.618C73.954 155.713 74.296 156.055 74.644 156.571L76.318 159.019C76.546 159.367 76.744 159.631 76.912 159.811C77.092 159.991 77.272 160.117 77.452 160.189C77.644 160.249 77.878 160.279 78.154 160.279C78.334 160.279 78.502 160.255 78.658 160.207C78.814 160.147 78.964 160.075 79.108 159.991ZM73.384 149.749H71.26V154.465H73.222C74.278 154.465 75.094 154.279 75.67 153.907C76.246 153.523 76.534 152.917 76.534 152.089C76.534 151.357 76.282 150.787 75.778 150.379C75.274 149.959 74.476 149.749 73.384 149.749ZM84.1867 161.521C82.8067 161.521 81.7207 161.125 80.9287 160.333C80.1487 159.541 79.7587 158.437 79.7587 157.021C79.7587 156.097 79.9447 155.275 80.3167 154.555C80.6887 153.835 81.1927 153.277 81.8287 152.881C82.4767 152.473 83.2087 152.269 84.0247 152.269C85.2487 152.269 86.1907 152.695 86.8507 153.547C87.5227 154.399 87.7627 155.671 87.5707 157.363H81.1087C81.1447 158.323 81.4327 159.055 81.9727 159.559C82.5247 160.063 83.2927 160.315 84.2767 160.315C84.7567 160.315 85.2187 160.213 85.6627 160.009C86.1067 159.793 86.4847 159.463 86.7967 159.019L87.6247 159.775C86.8207 160.939 85.6747 161.521 84.1867 161.521ZM84.0427 153.331C83.4907 153.331 83.0047 153.463 82.5847 153.727C82.1767 153.991 81.8467 154.351 81.5947 154.807C81.3427 155.251 81.1867 155.749 81.1267 156.301H86.4187C86.4667 155.257 86.2627 154.501 85.8067 154.033C85.3507 153.565 84.7627 153.331 84.0427 153.331ZM93.1016 161.521C92.0816 161.521 91.3136 161.251 90.7976 160.711C90.2816 160.159 90.0296 159.427 90.0416 158.515L90.0956 153.547H88.5116V152.431H90.1136L90.1316 150.559H91.4456L91.4276 152.431H94.5416V153.547H91.4096L91.3556 158.425C91.3556 159.001 91.4996 159.463 91.7876 159.811C92.0876 160.159 92.5496 160.333 93.1736 160.333C93.4496 160.333 93.7076 160.303 93.9476 160.243C94.1876 160.171 94.4396 160.033 94.7036 159.829L95.1356 160.873C94.8716 161.101 94.5596 161.269 94.1996 161.377C93.8396 161.473 93.4736 161.521 93.1016 161.521ZM98.9207 161.521C98.0207 161.521 97.3307 161.209 96.8507 160.585C96.3707 159.961 96.1307 159.097 96.1307 157.993L96.1847 152.431H97.4987L97.4447 157.831C97.4327 158.611 97.5707 159.217 97.8587 159.649C98.1467 160.081 98.6027 160.297 99.2267 160.297C99.8387 160.297 100.379 160.051 100.847 159.559C101.315 159.067 101.681 158.251 101.945 157.111C102.221 155.959 102.365 154.399 102.377 152.431H103.637V161.377H102.305L102.413 158.443C102.077 159.499 101.603 160.279 100.991 160.783C100.379 161.275 99.6887 161.521 98.9207 161.521ZM111.405 153.673C111.285 153.637 111.165 153.613 111.045 153.601C110.925 153.589 110.793 153.583 110.649 153.583C109.605 153.583 108.843 154.201 108.363 155.437C107.883 156.661 107.643 158.641 107.643 161.377H106.347V155.635L106.329 152.431H107.643L107.553 155.617C107.841 154.405 108.273 153.547 108.849 153.043C109.425 152.527 110.043 152.269 110.703 152.269C110.895 152.269 111.063 152.281 111.207 152.305C111.363 152.317 111.495 152.347 111.603 152.395L111.405 153.673ZM113.096 161.377V152.431H114.428L114.32 155.491C114.62 154.447 115.082 153.649 115.706 153.097C116.342 152.545 117.086 152.269 117.938 152.269C118.85 152.269 119.552 152.587 120.044 153.223C120.536 153.859 120.782 154.777 120.782 155.977L120.746 161.377H119.432L119.468 156.139C119.468 155.263 119.318 154.603 119.018 154.159C118.73 153.715 118.262 153.493 117.614 153.493C117.002 153.493 116.45 153.739 115.958 154.231C115.478 154.711 115.094 155.527 114.806 156.679C114.53 157.831 114.392 159.397 114.392 161.377H113.096ZM132.965 161.521C131.777 161.521 130.745 161.275 129.869 160.783C129.005 160.279 128.339 159.559 127.871 158.623C127.403 157.687 127.169 156.553 127.169 155.221C127.169 153.889 127.427 152.713 127.943 151.693C128.471 150.661 129.191 149.857 130.103 149.281C131.027 148.705 132.095 148.417 133.307 148.417C134.423 148.417 135.401 148.681 136.241 149.209C137.093 149.737 137.753 150.475 138.221 151.423C138.689 152.359 138.923 153.463 138.923 154.735C138.923 156.115 138.665 157.315 138.149 158.335C137.633 159.343 136.925 160.129 136.025 160.693C135.137 161.245 134.117 161.521 132.965 161.521ZM132.965 160.243C133.865 160.243 134.651 160.027 135.323 159.595C136.007 159.151 136.541 158.515 136.925 157.687C137.309 156.859 137.501 155.863 137.501 154.699C137.501 153.679 137.327 152.797 136.979 152.053C136.643 151.297 136.163 150.715 135.539 150.307C134.915 149.899 134.177 149.695 133.325 149.695C132.401 149.695 131.579 149.929 130.859 150.397C130.151 150.853 129.593 151.495 129.185 152.323C128.789 153.151 128.591 154.117 128.591 155.221C128.591 156.829 128.981 158.071 129.761 158.947C130.541 159.811 131.609 160.243 132.965 160.243ZM141.309 161.377V152.431H142.641L142.533 155.491C142.833 154.447 143.295 153.649 143.919 153.097C144.555 152.545 145.299 152.269 146.151 152.269C147.063 152.269 147.765 152.587 148.257 153.223C148.749 153.859 148.995 154.777 148.995 155.977L148.959 161.377H147.645L147.681 156.139C147.681 155.263 147.531 154.603 147.231 154.159C146.943 153.715 146.475 153.493 145.827 153.493C145.215 153.493 144.663 153.739 144.171 154.231C143.691 154.711 143.307 155.527 143.019 156.679C142.743 157.831 142.605 159.397 142.605 161.377H141.309ZM155.814 161.377V148.597H157.2V161.377H155.814ZM160.03 161.377V152.431H161.362L161.254 155.491C161.554 154.447 162.016 153.649 162.64 153.097C163.276 152.545 164.02 152.269 164.872 152.269C165.784 152.269 166.486 152.587 166.978 153.223C167.47 153.859 167.716 154.777 167.716 155.977L167.68 161.377H166.366L166.402 156.139C166.402 155.263 166.252 154.603 165.952 154.159C165.664 153.715 165.196 153.493 164.548 153.493C163.936 153.493 163.384 153.739 162.892 154.231C162.412 154.711 162.028 155.527 161.74 156.679C161.464 157.831 161.326 159.397 161.326 161.377H160.03ZM176.381 152.431H177.695L174.203 161.377H172.367L169.469 152.431H170.873L173.357 160.315L176.381 152.431ZM182.835 161.521C181.455 161.521 180.369 161.125 179.577 160.333C178.797 159.541 178.407 158.437 178.407 157.021C178.407 156.097 178.593 155.275 178.965 154.555C179.337 153.835 179.841 153.277 180.477 152.881C181.125 152.473 181.857 152.269 182.673 152.269C183.897 152.269 184.839 152.695 185.499 153.547C186.171 154.399 186.411 155.671 186.219 157.363H179.757C179.793 158.323 180.081 159.055 180.621 159.559C181.173 160.063 181.941 160.315 182.925 160.315C183.405 160.315 183.867 160.213 184.311 160.009C184.755 159.793 185.133 159.463 185.445 159.019L186.273 159.775C185.469 160.939 184.323 161.521 182.835 161.521ZM182.691 153.331C182.139 153.331 181.653 153.463 181.233 153.727C180.825 153.991 180.495 154.351 180.243 154.807C179.991 155.251 179.835 155.749 179.775 156.301H185.067C185.115 155.257 184.911 154.501 184.455 154.033C183.999 153.565 183.411 153.331 182.691 153.331ZM191.316 161.521C190.2 161.521 189.336 161.293 188.724 160.837C188.112 160.369 187.758 159.709 187.662 158.857L188.814 158.587C188.898 159.223 189.138 159.691 189.534 159.991C189.942 160.291 190.536 160.441 191.316 160.441C191.976 160.441 192.474 160.309 192.81 160.045C193.158 159.769 193.332 159.415 193.332 158.983C193.332 158.575 193.158 158.275 192.81 158.083C192.462 157.879 191.916 157.705 191.172 157.561C190.548 157.441 190.014 157.291 189.57 157.111C189.126 156.919 188.784 156.655 188.544 156.319C188.304 155.983 188.184 155.533 188.184 154.969C188.184 154.465 188.322 154.009 188.598 153.601C188.874 153.193 189.252 152.875 189.732 152.647C190.224 152.407 190.776 152.287 191.388 152.287C192.228 152.287 192.912 152.491 193.44 152.899C193.98 153.295 194.31 153.847 194.43 154.555L193.314 154.843C193.134 153.859 192.486 153.367 191.37 153.367C190.794 153.367 190.332 153.511 189.984 153.799C189.648 154.075 189.48 154.453 189.48 154.933C189.48 155.329 189.63 155.647 189.93 155.887C190.23 156.115 190.77 156.313 191.55 156.481C192.186 156.613 192.732 156.769 193.188 156.949C193.644 157.117 193.992 157.351 194.232 157.651C194.484 157.951 194.616 158.365 194.628 158.893C194.628 159.397 194.49 159.847 194.214 160.243C193.938 160.639 193.548 160.951 193.044 161.179C192.552 161.407 191.976 161.521 191.316 161.521ZM199.801 161.521C198.781 161.521 198.013 161.251 197.497 160.711C196.981 160.159 196.729 159.427 196.741 158.515L196.795 153.547H195.211V152.431H196.813L196.831 150.559H198.145L198.127 152.431H201.241V153.547H198.109L198.055 158.425C198.055 159.001 198.199 159.463 198.487 159.811C198.787 160.159 199.249 160.333 199.873 160.333C200.149 160.333 200.407 160.303 200.647 160.243C200.887 160.171 201.139 160.033 201.403 159.829L201.835 160.873C201.571 161.101 201.259 161.269 200.899 161.377C200.539 161.473 200.173 161.521 199.801 161.521ZM203.026 161.377V152.431H204.358L204.25 155.509C204.574 154.405 205.042 153.589 205.654 153.061C206.278 152.533 206.968 152.269 207.724 152.269C208.504 152.269 209.134 152.503 209.614 152.971C210.094 153.439 210.388 154.147 210.496 155.095C210.832 154.147 211.312 153.439 211.936 152.971C212.572 152.503 213.256 152.269 213.988 152.269C214.9 152.269 215.596 152.587 216.076 153.223C216.568 153.859 216.808 154.777 216.796 155.977L216.76 161.377H215.446L215.482 156.139C215.506 154.375 214.9 153.493 213.664 153.493C213.256 153.493 212.866 153.619 212.494 153.871C212.122 154.123 211.786 154.549 211.486 155.149C211.198 155.737 210.97 156.541 210.802 157.561C210.634 158.581 210.55 159.853 210.55 161.377H209.254V156.139C209.254 155.251 209.11 154.591 208.822 154.159C208.546 153.715 208.096 153.493 207.472 153.493C207.052 153.493 206.656 153.619 206.284 153.871C205.912 154.123 205.576 154.549 205.276 155.149C204.988 155.737 204.754 156.541 204.574 157.561C204.406 158.581 204.322 159.853 204.322 161.377H203.026ZM223.423 161.521C222.043 161.521 220.957 161.125 220.165 160.333C219.385 159.541 218.995 158.437 218.995 157.021C218.995 156.097 219.181 155.275 219.553 154.555C219.925 153.835 220.429 153.277 221.065 152.881C221.713 152.473 222.445 152.269 223.261 152.269C224.485 152.269 225.427 152.695 226.087 153.547C226.759 154.399 226.999 155.671 226.807 157.363H220.345C220.381 158.323 220.669 159.055 221.209 159.559C221.761 160.063 222.529 160.315 223.513 160.315C223.993 160.315 224.455 160.213 224.899 160.009C225.343 159.793 225.721 159.463 226.033 159.019L226.861 159.775C226.057 160.939 224.911 161.521 223.423 161.521ZM223.279 153.331C222.727 153.331 222.241 153.463 221.821 153.727C221.413 153.991 221.083 154.351 220.831 154.807C220.579 155.251 220.423 155.749 220.363 156.301H225.655C225.703 155.257 225.499 154.501 225.043 154.033C224.587 153.565 223.999 153.331 223.279 153.331ZM229.024 161.377V152.431H230.356L230.248 155.491C230.548 154.447 231.01 153.649 231.634 153.097C232.27 152.545 233.014 152.269 233.866 152.269C234.778 152.269 235.48 152.587 235.972 153.223C236.464 153.859 236.71 154.777 236.71 155.977L236.674 161.377H235.36L235.396 156.139C235.396 155.263 235.246 154.603 234.946 154.159C234.658 153.715 234.19 153.493 233.542 153.493C232.93 153.493 232.378 153.739 231.886 154.231C231.406 154.711 231.022 155.527 230.734 156.679C230.458 157.831 230.32 159.397 230.32 161.377H229.024ZM242.709 161.521C241.689 161.521 240.921 161.251 240.405 160.711C239.889 160.159 239.637 159.427 239.649 158.515L239.703 153.547H238.119V152.431H239.721L239.739 150.559H241.053L241.035 152.431H244.149V153.547H241.017L240.963 158.425C240.963 159.001 241.107 159.463 241.395 159.811C241.695 160.159 242.157 160.333 242.781 160.333C243.057 160.333 243.315 160.303 243.555 160.243C243.795 160.171 244.047 160.033 244.311 159.829L244.743 160.873C244.479 161.101 244.167 161.269 243.807 161.377C243.447 161.473 243.081 161.521 242.709 161.521Z" fill="#222A41"/>
<path d="M111.31 117.401C107.502 117.401 104.654 116.057 102.766 113.369C100.91 110.649 99.9818 106.761 99.9818 101.705C99.9818 97.9929 100.43 94.6969 101.326 91.8169C102.254 88.9049 103.646 86.6329 105.502 85.0009C107.358 83.3369 109.726 82.5049 112.606 82.5049C114.91 82.5049 116.878 83.1609 118.51 84.4729C120.174 85.7529 121.39 87.6569 122.158 90.1849L120.334 90.9049C119.662 88.5369 118.654 86.8569 117.31 85.8649C115.966 84.8409 114.366 84.3289 112.51 84.3289C110.462 84.3289 108.638 84.9529 107.038 86.2009C105.47 87.4489 104.238 89.3529 103.342 91.9129C102.446 94.4729 101.998 97.7369 101.998 101.705V103.049C102.702 100.873 103.95 99.1289 105.742 97.8169C107.566 96.4729 109.694 95.8009 112.126 95.8009C114.11 95.8009 115.838 96.2489 117.31 97.1449C118.782 98.0409 119.918 99.2569 120.718 100.793C121.55 102.297 121.966 104.009 121.966 105.929C121.966 108.265 121.486 110.297 120.526 112.025C119.598 113.721 118.318 115.049 116.686 116.009C115.086 116.937 113.294 117.401 111.31 117.401ZM111.166 115.625C113.726 115.625 115.822 114.793 117.454 113.129C119.118 111.433 119.95 109.081 119.95 106.073C119.95 103.513 119.214 101.465 117.742 99.9289C116.302 98.3609 114.382 97.5769 111.982 97.5769C110.286 97.5769 108.734 97.9609 107.326 98.7289C105.95 99.4649 104.846 100.537 104.014 101.945C103.214 103.321 102.814 104.953 102.814 106.841C102.814 109.465 103.55 111.593 105.022 113.225C106.494 114.825 108.542 115.625 111.166 115.625ZM138.939 117.401C135.515 117.401 132.795 116.601 130.779 115.001C128.795 113.369 127.803 111.193 127.803 108.473C127.803 106.457 128.411 104.665 129.627 103.097C130.875 101.497 132.507 100.393 134.523 99.7849C132.699 99.1769 131.243 98.1689 130.155 96.7609C129.099 95.3209 128.571 93.6889 128.571 91.8649C128.571 90.1049 128.987 88.5209 129.819 87.1129C130.683 85.6729 131.883 84.5529 133.419 83.7529C134.987 82.9209 136.827 82.5049 138.939 82.5049C141.051 82.5049 142.875 82.9209 144.411 83.7529C145.979 84.5529 147.179 85.6729 148.011 87.1129C148.875 88.5209 149.307 90.1049 149.307 91.8649C149.307 93.6889 148.763 95.3209 147.675 96.7609C146.619 98.2009 145.179 99.2089 143.355 99.7849C145.275 100.393 146.875 101.497 148.155 103.097C149.435 104.665 150.075 106.457 150.075 108.473C150.075 111.193 149.067 113.369 147.051 115.001C145.067 116.601 142.363 117.401 138.939 117.401ZM138.939 98.9689C141.499 98.9689 143.531 98.3289 145.035 97.0489C146.539 95.7689 147.291 94.0409 147.291 91.8649C147.291 89.5609 146.507 87.7209 144.939 86.3449C143.371 84.9689 141.371 84.2809 138.939 84.2809C136.507 84.2809 134.507 84.9689 132.939 86.3449C131.371 87.6889 130.587 89.5289 130.587 91.8649C130.587 94.0409 131.339 95.7689 132.843 97.0489C134.379 98.3289 136.411 98.9689 138.939 98.9689ZM138.939 115.625C141.755 115.625 143.963 114.985 145.563 113.705C147.195 112.393 148.011 110.633 148.011 108.425C148.011 106.921 147.627 105.593 146.859 104.441C146.091 103.257 145.019 102.329 143.643 101.657C142.299 100.985 140.731 100.649 138.939 100.649C137.147 100.649 135.563 100.985 134.187 101.657C132.811 102.297 131.739 103.209 130.971 104.393C130.235 105.545 129.867 106.889 129.867 108.425C129.867 110.633 130.667 112.393 132.267 113.705C133.899 114.985 136.123 115.625 138.939 115.625ZM167.48 117.401C163.992 117.401 161.256 116.025 159.272 113.273C157.32 110.489 156.344 106.281 156.344 100.649C156.344 97.0009 156.84 93.8169 157.832 91.0969C158.824 88.3769 160.216 86.2649 162.008 84.7609C163.8 83.2569 165.896 82.5049 168.296 82.5049C170.472 82.5049 172.36 83.1769 173.96 84.5209C175.592 85.8329 176.856 87.7529 177.752 90.2809C178.648 92.8089 179.096 95.8329 179.096 99.3529C179.096 103.225 178.6 106.505 177.608 109.193C176.616 111.881 175.24 113.929 173.48 115.337C171.752 116.745 169.752 117.433 167.48 117.401ZM167.48 115.481C170.328 115.481 172.648 114.137 174.44 111.449C176.232 108.761 177.128 104.665 177.128 99.1609C177.128 94.4249 176.328 90.7769 174.728 88.2169C173.128 85.6569 170.984 84.3769 168.296 84.3769C166.344 84.3769 164.616 85.0169 163.112 86.2969C161.608 87.5769 160.44 89.4489 159.608 91.9129C158.776 94.3449 158.36 97.2889 158.36 100.745C158.36 105.737 159.176 109.449 160.808 111.881C162.44 114.281 164.664 115.481 167.48 115.481ZM191.75 96.1369C189.702 96.1369 188.054 95.5609 186.806 94.4089C185.558 93.2249 184.934 91.7049 184.934 89.8489C184.934 87.7369 185.606 86.0089 186.95 84.6649C188.294 83.2889 190.054 82.6009 192.23 82.6009C194.214 82.6009 195.814 83.1769 197.03 84.3289C198.246 85.4809 198.854 87.0009 198.854 88.8889C198.854 90.2329 198.55 91.4649 197.942 92.5849C197.334 93.6729 196.486 94.5369 195.398 95.1769C194.31 95.8169 193.094 96.1369 191.75 96.1369ZM188.006 117.065L207.446 82.9849H209.318L189.878 117.065H188.006ZM191.75 94.6009C193.318 94.6009 194.614 94.0729 195.638 93.0169C196.662 91.9289 197.174 90.5849 197.174 88.9849C197.174 87.5129 196.726 86.3289 195.83 85.4329C194.934 84.5369 193.734 84.0889 192.23 84.0889C190.502 84.0889 189.126 84.6489 188.102 85.7689C187.11 86.8569 186.614 88.2169 186.614 89.8489C186.614 91.2569 187.078 92.4089 188.006 93.3049C188.934 94.1689 190.182 94.6009 191.75 94.6009ZM205.238 117.353C203.222 117.353 201.59 116.777 200.342 115.625C199.094 114.473 198.47 112.953 198.47 111.065C198.47 108.953 199.142 107.225 200.486 105.881C201.83 104.505 203.59 103.817 205.766 103.817C207.75 103.817 209.35 104.393 210.566 105.545C211.782 106.697 212.39 108.217 212.39 110.105C212.39 111.449 212.07 112.681 211.43 113.801C210.822 114.889 209.974 115.753 208.886 116.393C207.83 117.033 206.614 117.353 205.238 117.353ZM205.286 115.817C206.854 115.817 208.15 115.289 209.174 114.233C210.198 113.177 210.71 111.849 210.71 110.249C210.71 108.777 210.246 107.593 209.318 106.697C208.422 105.801 207.238 105.353 205.766 105.353C204.038 105.353 202.662 105.897 201.638 106.985C200.646 108.073 200.15 109.433 200.15 111.065C200.15 112.473 200.614 113.625 201.542 114.521C202.47 115.385 203.718 115.817 205.286 115.817Z" fill="#459EFF"/>
<defs>
<filter id="filter0_d" x="0" y="0" width="313" height="240" filterUnits="userSpaceOnUse" color-interpolation-filters="sRGB">
<feFlood flood-opacity="0" result="BackgroundImageFix"/>
<feColorMatrix in="SourceAlpha" type="matrix" values="0 0 0 0 0 0 0 0 0 0 0 0 0 0 0 0 0 0 127 0"/>
<feOffset dy="2"/>
<feGaussianBlur stdDeviation="15"/>
<feColorMatrix type="matrix" values="0 0 0 0 0.268807 0 0 0 0 0.618425 0 0 0 0 1 0 0 0 0.2 0"/>
<feBlend mode="normal" in2="BackgroundImageFix" result="effect1_dropShadow"/>
<feBlend mode="normal" in="SourceGraphic" in2="effect1_dropShadow" result="shape"/>
</filter>
</defs>
</svg>
