<svg width="313" height="240" viewBox="0 0 313 240" fill="none" xmlns="http://www.w3.org/2000/svg">
<g filter="url(#filter0_d)">
<rect x="30" y="28" width="253" height="180" rx="18" fill="white"/>
</g>
<path d="M77.2573 161.377V148.597H78.6433V160.171H84.6193L84.4933 161.377H77.2573ZM89.7062 161.521C88.3262 161.521 87.2402 161.125 86.4482 160.333C85.6682 159.541 85.2782 158.437 85.2782 157.021C85.2782 156.097 85.4642 155.275 85.8362 154.555C86.2082 153.835 86.7122 153.277 87.3482 152.881C87.9962 152.473 88.7282 152.269 89.5442 152.269C90.7682 152.269 91.7102 152.695 92.3702 153.547C93.0422 154.399 93.2822 155.671 93.0902 157.363H86.6282C86.6642 158.323 86.9522 159.055 87.4922 159.559C88.0442 160.063 88.8122 160.315 89.7962 160.315C90.2762 160.315 90.7382 160.213 91.1822 160.009C91.6262 159.793 92.0042 159.463 92.3162 159.019L93.1442 159.775C92.3402 160.939 91.1942 161.521 89.7062 161.521ZM89.5622 153.331C89.0102 153.331 88.5242 153.463 88.1042 153.727C87.6962 153.991 87.3662 154.351 87.1142 154.807C86.8622 155.251 86.7062 155.749 86.6462 156.301H91.9382C91.9862 155.257 91.7822 154.501 91.3262 154.033C90.8702 153.565 90.2822 153.331 89.5622 153.331ZM98.187 161.521C97.071 161.521 96.207 161.293 95.595 160.837C94.983 160.369 94.629 159.709 94.533 158.857L95.685 158.587C95.769 159.223 96.009 159.691 96.405 159.991C96.813 160.291 97.407 160.441 98.187 160.441C98.847 160.441 99.345 160.309 99.681 160.045C100.029 159.769 100.203 159.415 100.203 158.983C100.203 158.575 100.029 158.275 99.681 158.083C99.333 157.879 98.787 157.705 98.043 157.561C97.419 157.441 96.885 157.291 96.441 157.111C95.997 156.919 95.655 156.655 95.415 156.319C95.175 155.983 95.055 155.533 95.055 154.969C95.055 154.465 95.193 154.009 95.469 153.601C95.745 153.193 96.123 152.875 96.603 152.647C97.095 152.407 97.647 152.287 98.259 152.287C99.099 152.287 99.783 152.491 100.311 152.899C100.851 153.295 101.181 153.847 101.301 154.555L100.185 154.843C100.005 153.859 99.357 153.367 98.241 153.367C97.665 153.367 97.203 153.511 96.855 153.799C96.519 154.075 96.351 154.453 96.351 154.933C96.351 155.329 96.501 155.647 96.801 155.887C97.101 156.115 97.641 156.313 98.421 156.481C99.057 156.613 99.603 156.769 100.059 156.949C100.515 157.117 100.863 157.351 101.103 157.651C101.355 157.951 101.487 158.365 101.499 158.893C101.499 159.397 101.361 159.847 101.085 160.243C100.809 160.639 100.419 160.951 99.915 161.179C99.423 161.407 98.847 161.521 98.187 161.521ZM106.326 161.521C105.21 161.521 104.346 161.293 103.734 160.837C103.122 160.369 102.768 159.709 102.672 158.857L103.824 158.587C103.908 159.223 104.148 159.691 104.544 159.991C104.952 160.291 105.546 160.441 106.326 160.441C106.986 160.441 107.484 160.309 107.82 160.045C108.168 159.769 108.342 159.415 108.342 158.983C108.342 158.575 108.168 158.275 107.82 158.083C107.472 157.879 106.926 157.705 106.182 157.561C105.558 157.441 105.024 157.291 104.58 157.111C104.136 156.919 103.794 156.655 103.554 156.319C103.314 155.983 103.194 155.533 103.194 154.969C103.194 154.465 103.332 154.009 103.608 153.601C103.884 153.193 104.262 152.875 104.742 152.647C105.234 152.407 105.786 152.287 106.398 152.287C107.238 152.287 107.922 152.491 108.45 152.899C108.99 153.295 109.32 153.847 109.44 154.555L108.324 154.843C108.144 153.859 107.496 153.367 106.38 153.367C105.804 153.367 105.342 153.511 104.994 153.799C104.658 154.075 104.49 154.453 104.49 154.933C104.49 155.329 104.64 155.647 104.94 155.887C105.24 156.115 105.78 156.313 106.56 156.481C107.196 156.613 107.742 156.769 108.198 156.949C108.654 157.117 109.002 157.351 109.242 157.651C109.494 157.951 109.626 158.365 109.638 158.893C109.638 159.397 109.5 159.847 109.224 160.243C108.948 160.639 108.558 160.951 108.054 161.179C107.562 161.407 106.986 161.521 106.326 161.521ZM119.55 161.521C116.718 161.521 115.158 160.213 114.87 157.597L116.166 157.417C116.346 158.437 116.706 159.175 117.246 159.631C117.798 160.075 118.596 160.297 119.64 160.297C120.528 160.297 121.218 160.099 121.71 159.703C122.214 159.295 122.466 158.737 122.466 158.029C122.466 157.573 122.358 157.207 122.142 156.931C121.938 156.655 121.62 156.433 121.188 156.265C120.768 156.085 120.234 155.923 119.586 155.779C118.794 155.599 118.104 155.383 117.516 155.131C116.928 154.879 116.472 154.519 116.148 154.051C115.824 153.583 115.662 152.935 115.662 152.107C115.662 151.399 115.836 150.769 116.184 150.217C116.544 149.653 117.03 149.215 117.642 148.903C118.266 148.579 118.974 148.417 119.766 148.417C120.87 148.417 121.77 148.717 122.466 149.317C123.174 149.917 123.594 150.751 123.726 151.819L122.52 152.035C122.352 151.207 122.04 150.601 121.584 150.217C121.14 149.833 120.522 149.641 119.73 149.641C118.914 149.641 118.26 149.863 117.768 150.307C117.288 150.739 117.048 151.321 117.048 152.053C117.048 152.833 117.3 153.397 117.804 153.745C118.308 154.093 119.076 154.375 120.108 154.591C120.9 154.759 121.572 154.969 122.124 155.221C122.688 155.461 123.114 155.803 123.402 156.247C123.702 156.679 123.852 157.267 123.852 158.011C123.852 158.707 123.666 159.319 123.294 159.847C122.934 160.375 122.43 160.789 121.782 161.089C121.134 161.377 120.39 161.521 119.55 161.521ZM133.543 152.431V161.377H132.211L132.265 159.271C131.929 159.967 131.479 160.519 130.915 160.927C130.351 161.323 129.709 161.521 128.989 161.521C128.233 161.521 127.597 161.347 127.081 160.999C126.565 160.639 126.169 160.147 125.893 159.523C125.617 158.887 125.479 158.155 125.479 157.327C125.479 156.331 125.659 155.455 126.019 154.699C126.379 153.931 126.883 153.337 127.531 152.917C128.179 152.485 128.929 152.269 129.781 152.269C130.381 152.269 130.909 152.407 131.365 152.683C131.821 152.959 132.157 153.313 132.373 153.745L132.553 152.431H133.543ZM129.817 153.457C128.917 153.457 128.197 153.799 127.657 154.483C127.117 155.167 126.847 156.079 126.847 157.219C126.847 158.191 127.051 158.953 127.459 159.505C127.879 160.045 128.449 160.315 129.169 160.315C129.757 160.315 130.285 160.141 130.753 159.793C131.221 159.445 131.587 158.965 131.851 158.353C132.115 157.741 132.247 157.039 132.247 156.247C132.247 155.383 132.031 154.705 131.599 154.213C131.167 153.709 130.573 153.457 129.817 153.457ZM138.442 161.521C137.698 161.521 137.146 161.317 136.786 160.909C136.426 160.501 136.246 159.961 136.246 159.289V148.057H137.56V159.127C137.56 159.523 137.644 159.823 137.812 160.027C137.98 160.231 138.256 160.333 138.64 160.333C138.82 160.333 138.994 160.309 139.162 160.261C139.33 160.201 139.462 160.141 139.558 160.081L139.918 161.071C139.75 161.215 139.528 161.323 139.252 161.395C138.988 161.479 138.718 161.521 138.442 161.521ZM148.59 152.431V161.377H147.258L147.312 159.271C146.976 159.967 146.526 160.519 145.962 160.927C145.398 161.323 144.756 161.521 144.036 161.521C143.28 161.521 142.644 161.347 142.128 160.999C141.612 160.639 141.216 160.147 140.94 159.523C140.664 158.887 140.526 158.155 140.526 157.327C140.526 156.331 140.706 155.455 141.066 154.699C141.426 153.931 141.93 153.337 142.578 152.917C143.226 152.485 143.976 152.269 144.828 152.269C145.428 152.269 145.956 152.407 146.412 152.683C146.868 152.959 147.204 153.313 147.42 153.745L147.6 152.431H148.59ZM144.864 153.457C143.964 153.457 143.244 153.799 142.704 154.483C142.164 155.167 141.894 156.079 141.894 157.219C141.894 158.191 142.098 158.953 142.506 159.505C142.926 160.045 143.496 160.315 144.216 160.315C144.804 160.315 145.332 160.141 145.8 159.793C146.268 159.445 146.634 158.965 146.898 158.353C147.162 157.741 147.294 157.039 147.294 156.247C147.294 155.383 147.078 154.705 146.646 154.213C146.214 153.709 145.62 153.457 144.864 153.457ZM156.369 153.673C156.249 153.637 156.129 153.613 156.009 153.601C155.889 153.589 155.757 153.583 155.613 153.583C154.569 153.583 153.807 154.201 153.327 155.437C152.847 156.661 152.607 158.641 152.607 161.377H151.311V155.635L151.293 152.431H152.607L152.517 155.617C152.805 154.405 153.237 153.547 153.813 153.043C154.389 152.527 155.007 152.269 155.667 152.269C155.859 152.269 156.027 152.281 156.171 152.305C156.327 152.317 156.459 152.347 156.567 152.395L156.369 153.673ZM161.049 165.157C160.533 165.157 160.005 165.103 159.465 164.995C158.937 164.899 158.487 164.743 158.115 164.527L158.475 163.357C158.859 163.549 159.279 163.693 159.735 163.789C160.191 163.897 160.641 163.951 161.085 163.951C162.237 163.951 163.053 163.669 163.533 163.105C164.025 162.541 164.283 161.629 164.307 160.369L164.361 158.173C164.025 159.265 163.545 160.069 162.921 160.585C162.297 161.101 161.577 161.359 160.761 161.359C159.849 161.359 159.153 161.047 158.673 160.423C158.193 159.799 157.953 158.935 157.953 157.831L158.007 152.431H159.321L159.267 157.669C159.255 158.449 159.393 159.055 159.681 159.487C159.969 159.907 160.431 160.117 161.067 160.117C161.703 160.117 162.261 159.877 162.741 159.397C163.221 158.917 163.599 158.119 163.875 157.003C164.151 155.875 164.289 154.351 164.289 152.431H165.549V160.171C165.549 163.495 164.049 165.157 161.049 165.157ZM179.876 149.785H173.846V154.285H179.714V155.473H173.846V160.189H180.128L180.02 161.377H172.478V148.597H179.876V149.785ZM182.292 161.377H180.78L184.092 156.859L180.924 152.431H182.526L184.902 155.761L187.314 152.431H188.826L185.64 156.805L188.898 161.377H187.314L184.83 157.885L182.292 161.377ZM190.51 164.977V152.431H191.842L191.788 154.519C192.112 153.823 192.556 153.277 193.12 152.881C193.684 152.473 194.332 152.269 195.064 152.269C195.82 152.269 196.456 152.449 196.972 152.809C197.5 153.157 197.896 153.649 198.16 154.285C198.436 154.909 198.574 155.629 198.574 156.445C198.574 157.441 198.394 158.323 198.034 159.091C197.674 159.847 197.17 160.441 196.522 160.873C195.874 161.305 195.124 161.521 194.272 161.521C193.72 161.521 193.228 161.401 192.796 161.161C192.364 160.921 192.034 160.603 191.806 160.207L191.824 161.377V164.977H190.51ZM194.236 160.315C195.136 160.315 195.856 159.973 196.396 159.289C196.936 158.593 197.206 157.675 197.206 156.535C197.206 155.575 196.996 154.825 196.576 154.285C196.168 153.733 195.604 153.457 194.884 153.457C194.296 153.457 193.768 153.631 193.3 153.979C192.844 154.327 192.478 154.807 192.202 155.419C191.938 156.031 191.806 156.727 191.806 157.507C191.806 158.383 192.022 159.073 192.454 159.577C192.898 160.069 193.492 160.315 194.236 160.315ZM204.913 161.521C203.533 161.521 202.447 161.125 201.655 160.333C200.875 159.541 200.485 158.437 200.485 157.021C200.485 156.097 200.671 155.275 201.043 154.555C201.415 153.835 201.919 153.277 202.555 152.881C203.203 152.473 203.935 152.269 204.751 152.269C205.975 152.269 206.917 152.695 207.577 153.547C208.249 154.399 208.489 155.671 208.297 157.363H201.835C201.871 158.323 202.159 159.055 202.699 159.559C203.251 160.063 204.019 160.315 205.003 160.315C205.483 160.315 205.945 160.213 206.389 160.009C206.833 159.793 207.211 159.463 207.523 159.019L208.351 159.775C207.547 160.939 206.401 161.521 204.913 161.521ZM204.769 153.331C204.217 153.331 203.731 153.463 203.311 153.727C202.903 153.991 202.573 154.351 202.321 154.807C202.069 155.251 201.913 155.749 201.853 156.301H207.145C207.193 155.257 206.989 154.501 206.533 154.033C206.077 153.565 205.489 153.331 204.769 153.331ZM210.514 161.377V152.431H211.846L211.738 155.491C212.038 154.447 212.5 153.649 213.124 153.097C213.76 152.545 214.504 152.269 215.356 152.269C216.268 152.269 216.97 152.587 217.462 153.223C217.954 153.859 218.2 154.777 218.2 155.977L218.164 161.377H216.85L216.886 156.139C216.886 155.263 216.736 154.603 216.436 154.159C216.148 153.715 215.68 153.493 215.032 153.493C214.42 153.493 213.868 153.739 213.376 154.231C212.896 154.711 212.512 155.527 212.224 156.679C211.948 157.831 211.81 159.397 211.81 161.377H210.514ZM223.677 161.521C222.561 161.521 221.697 161.293 221.085 160.837C220.473 160.369 220.119 159.709 220.023 158.857L221.175 158.587C221.259 159.223 221.499 159.691 221.895 159.991C222.303 160.291 222.897 160.441 223.677 160.441C224.337 160.441 224.835 160.309 225.171 160.045C225.519 159.769 225.693 159.415 225.693 158.983C225.693 158.575 225.519 158.275 225.171 158.083C224.823 157.879 224.277 157.705 223.533 157.561C222.909 157.441 222.375 157.291 221.931 157.111C221.487 156.919 221.145 156.655 220.905 156.319C220.665 155.983 220.545 155.533 220.545 154.969C220.545 154.465 220.683 154.009 220.959 153.601C221.235 153.193 221.613 152.875 222.093 152.647C222.585 152.407 223.137 152.287 223.749 152.287C224.589 152.287 225.273 152.491 225.801 152.899C226.341 153.295 226.671 153.847 226.791 154.555L225.675 154.843C225.495 153.859 224.847 153.367 223.731 153.367C223.155 153.367 222.693 153.511 222.345 153.799C222.009 154.075 221.841 154.453 221.841 154.933C221.841 155.329 221.991 155.647 222.291 155.887C222.591 156.115 223.131 156.313 223.911 156.481C224.547 156.613 225.093 156.769 225.549 156.949C226.005 157.117 226.353 157.351 226.593 157.651C226.845 157.951 226.977 158.365 226.989 158.893C226.989 159.397 226.851 159.847 226.575 160.243C226.299 160.639 225.909 160.951 225.405 161.179C224.913 161.407 224.337 161.521 223.677 161.521ZM232.968 161.521C231.588 161.521 230.502 161.125 229.71 160.333C228.93 159.541 228.54 158.437 228.54 157.021C228.54 156.097 228.726 155.275 229.098 154.555C229.47 153.835 229.974 153.277 230.61 152.881C231.258 152.473 231.99 152.269 232.806 152.269C234.03 152.269 234.972 152.695 235.632 153.547C236.304 154.399 236.544 155.671 236.352 157.363H229.89C229.926 158.323 230.214 159.055 230.754 159.559C231.306 160.063 232.074 160.315 233.058 160.315C233.538 160.315 234 160.213 234.444 160.009C234.888 159.793 235.266 159.463 235.578 159.019L236.406 159.775C235.602 160.939 234.456 161.521 232.968 161.521ZM232.824 153.331C232.272 153.331 231.786 153.463 231.366 153.727C230.958 153.991 230.628 154.351 230.376 154.807C230.124 155.251 229.968 155.749 229.908 156.301H235.2C235.248 155.257 235.044 154.501 234.588 154.033C234.132 153.565 233.544 153.331 232.824 153.331Z" fill="#222A41"/>
<path d="M119.72 117.065H117.656L133.352 84.6649H115.016V82.9849H135.656V84.1369L119.72 117.065ZM152.918 117.401C148.982 117.401 145.782 116.553 143.318 114.857L144.23 113.081C145.318 113.849 146.63 114.457 148.166 114.905C149.734 115.321 151.382 115.529 153.11 115.529C154.774 115.529 156.294 115.241 157.67 114.665C159.046 114.089 160.134 113.193 160.934 111.977C161.766 110.761 162.182 109.177 162.182 107.225C162.182 104.633 161.174 102.665 159.158 101.321C157.142 99.9449 154.054 99.1929 149.894 99.0649L145.574 98.9209L146.63 82.9849H162.662V84.6649H148.406L147.59 97.0969L150.134 97.1929C154.87 97.3849 158.39 98.3449 160.694 100.073C163.03 101.801 164.198 104.201 164.198 107.273C164.198 110.537 163.158 113.049 161.078 114.809C158.998 116.537 156.278 117.401 152.918 117.401ZM177.859 96.1369C175.811 96.1369 174.163 95.5609 172.915 94.4089C171.667 93.2249 171.043 91.7049 171.043 89.8489C171.043 87.7369 171.715 86.0089 173.059 84.6649C174.403 83.2889 176.163 82.6009 178.339 82.6009C180.323 82.6009 181.923 83.1769 183.139 84.3289C184.355 85.4809 184.963 87.0009 184.963 88.8889C184.963 90.2329 184.659 91.4649 184.051 92.5849C183.443 93.6729 182.595 94.5369 181.507 95.1769C180.419 95.8169 179.203 96.1369 177.859 96.1369ZM174.115 117.065L193.555 82.9849H195.427L175.987 117.065H174.115ZM177.859 94.6009C179.427 94.6009 180.723 94.0729 181.747 93.0169C182.771 91.9289 183.283 90.5849 183.283 88.9849C183.283 87.5129 182.835 86.3289 181.939 85.4329C181.043 84.5369 179.843 84.0889 178.339 84.0889C176.611 84.0889 175.235 84.6489 174.211 85.7689C173.219 86.8569 172.723 88.2169 172.723 89.8489C172.723 91.2569 173.187 92.4089 174.115 93.3049C175.043 94.1689 176.291 94.6009 177.859 94.6009ZM191.347 117.353C189.331 117.353 187.699 116.777 186.451 115.625C185.203 114.473 184.579 112.953 184.579 111.065C184.579 108.953 185.251 107.225 186.595 105.881C187.939 104.505 189.699 103.817 191.875 103.817C193.859 103.817 195.459 104.393 196.675 105.545C197.891 106.697 198.499 108.217 198.499 110.105C198.499 111.449 198.179 112.681 197.539 113.801C196.931 114.889 196.083 115.753 194.995 116.393C193.939 117.033 192.723 117.353 191.347 117.353ZM191.395 115.817C192.963 115.817 194.259 115.289 195.283 114.233C196.307 113.177 196.819 111.849 196.819 110.249C196.819 108.777 196.355 107.593 195.427 106.697C194.531 105.801 193.347 105.353 191.875 105.353C190.147 105.353 188.771 105.897 187.747 106.985C186.755 108.073 186.259 109.433 186.259 111.065C186.259 112.473 186.723 113.625 187.651 114.521C188.579 115.385 189.827 115.817 191.395 115.817Z" fill="#459EFF"/>
<defs>
<filter id="filter0_d" x="0" y="0" width="313" height="240" filterUnits="userSpaceOnUse" color-interpolation-filters="sRGB">
<feFlood flood-opacity="0" result="BackgroundImageFix"/>
<feColorMatrix in="SourceAlpha" type="matrix" values="0 0 0 0 0 0 0 0 0 0 0 0 0 0 0 0 0 0 127 0"/>
<feOffset dy="2"/>
<feGaussianBlur stdDeviation="15"/>
<feColorMatrix type="matrix" values="0 0 0 0 0.268807 0 0 0 0 0.618425 0 0 0 0 1 0 0 0 0.2 0"/>
<feBlend mode="normal" in2="BackgroundImageFix" result="effect1_dropShadow"/>
<feBlend mode="normal" in="SourceGraphic" in2="effect1_dropShadow" result="shape"/>
</filter>
</defs>
</svg>
