<svg width="313" height="240" viewBox="0 0 313 240" fill="none" xmlns="http://www.w3.org/2000/svg">
<g filter="url(#filter0_d)">
<rect x="30" y="28" width="253" height="180" rx="18" fill="white"/>
</g>
<path d="M119.904 148.597L119.778 149.803H115.692V161.377H114.288V149.803H110.112V148.597H119.904ZM122.337 152.431V161.377H121.041V152.431H122.337ZM121.725 150.397C121.437 150.397 121.215 150.307 121.059 150.127C120.903 149.947 120.825 149.737 120.825 149.497C120.825 149.257 120.903 149.047 121.059 148.867C121.227 148.687 121.449 148.597 121.725 148.597C122.001 148.597 122.217 148.687 122.373 148.867C122.541 149.047 122.625 149.257 122.625 149.497C122.625 149.737 122.541 149.947 122.373 150.127C122.217 150.307 122.001 150.397 121.725 150.397ZM125.032 161.377V152.431H126.364L126.256 155.509C126.58 154.405 127.048 153.589 127.66 153.061C128.284 152.533 128.974 152.269 129.73 152.269C130.51 152.269 131.14 152.503 131.62 152.971C132.1 153.439 132.394 154.147 132.502 155.095C132.838 154.147 133.318 153.439 133.942 152.971C134.578 152.503 135.262 152.269 135.994 152.269C136.906 152.269 137.602 152.587 138.082 153.223C138.574 153.859 138.814 154.777 138.802 155.977L138.766 161.377H137.452L137.488 156.139C137.512 154.375 136.906 153.493 135.67 153.493C135.262 153.493 134.872 153.619 134.5 153.871C134.128 154.123 133.792 154.549 133.492 155.149C133.204 155.737 132.976 156.541 132.808 157.561C132.64 158.581 132.556 159.853 132.556 161.377H131.26V156.139C131.26 155.251 131.116 154.591 130.828 154.159C130.552 153.715 130.102 153.493 129.478 153.493C129.058 153.493 128.662 153.619 128.29 153.871C127.918 154.123 127.582 154.549 127.282 155.149C126.994 155.737 126.76 156.541 126.58 157.561C126.412 158.581 126.328 159.853 126.328 161.377H125.032ZM145.429 161.521C144.049 161.521 142.963 161.125 142.171 160.333C141.391 159.541 141.001 158.437 141.001 157.021C141.001 156.097 141.187 155.275 141.559 154.555C141.931 153.835 142.435 153.277 143.071 152.881C143.719 152.473 144.451 152.269 145.267 152.269C146.491 152.269 147.433 152.695 148.093 153.547C148.765 154.399 149.005 155.671 148.813 157.363H142.351C142.387 158.323 142.675 159.055 143.215 159.559C143.767 160.063 144.535 160.315 145.519 160.315C145.999 160.315 146.461 160.213 146.905 160.009C147.349 159.793 147.727 159.463 148.039 159.019L148.867 159.775C148.063 160.939 146.917 161.521 145.429 161.521ZM145.285 153.331C144.733 153.331 144.247 153.463 143.827 153.727C143.419 153.991 143.089 154.351 142.837 154.807C142.585 155.251 142.429 155.749 142.369 156.301H147.661C147.709 155.257 147.505 154.501 147.049 154.033C146.593 153.565 146.005 153.331 145.285 153.331ZM158.995 161.521C156.163 161.521 154.603 160.213 154.315 157.597L155.611 157.417C155.791 158.437 156.151 159.175 156.691 159.631C157.243 160.075 158.041 160.297 159.085 160.297C159.973 160.297 160.663 160.099 161.155 159.703C161.659 159.295 161.911 158.737 161.911 158.029C161.911 157.573 161.803 157.207 161.587 156.931C161.383 156.655 161.065 156.433 160.633 156.265C160.213 156.085 159.679 155.923 159.031 155.779C158.239 155.599 157.549 155.383 156.961 155.131C156.373 154.879 155.917 154.519 155.593 154.051C155.269 153.583 155.107 152.935 155.107 152.107C155.107 151.399 155.281 150.769 155.629 150.217C155.989 149.653 156.475 149.215 157.087 148.903C157.711 148.579 158.419 148.417 159.211 148.417C160.315 148.417 161.215 148.717 161.911 149.317C162.619 149.917 163.039 150.751 163.171 151.819L161.965 152.035C161.797 151.207 161.485 150.601 161.029 150.217C160.585 149.833 159.967 149.641 159.175 149.641C158.359 149.641 157.705 149.863 157.213 150.307C156.733 150.739 156.493 151.321 156.493 152.053C156.493 152.833 156.745 153.397 157.249 153.745C157.753 154.093 158.521 154.375 159.553 154.591C160.345 154.759 161.017 154.969 161.569 155.221C162.133 155.461 162.559 155.803 162.847 156.247C163.147 156.679 163.297 157.267 163.297 158.011C163.297 158.707 163.111 159.319 162.739 159.847C162.379 160.375 161.875 160.789 161.227 161.089C160.579 161.377 159.835 161.521 158.995 161.521ZM172.989 152.431V161.377H171.657L171.711 159.271C171.375 159.967 170.925 160.519 170.361 160.927C169.797 161.323 169.155 161.521 168.435 161.521C167.679 161.521 167.043 161.347 166.527 160.999C166.011 160.639 165.615 160.147 165.339 159.523C165.063 158.887 164.925 158.155 164.925 157.327C164.925 156.331 165.105 155.455 165.465 154.699C165.825 153.931 166.329 153.337 166.977 152.917C167.625 152.485 168.375 152.269 169.227 152.269C169.827 152.269 170.355 152.407 170.811 152.683C171.267 152.959 171.603 153.313 171.819 153.745L171.999 152.431H172.989ZM169.263 153.457C168.363 153.457 167.643 153.799 167.103 154.483C166.563 155.167 166.293 156.079 166.293 157.219C166.293 158.191 166.497 158.953 166.905 159.505C167.325 160.045 167.895 160.315 168.615 160.315C169.203 160.315 169.731 160.141 170.199 159.793C170.667 159.445 171.033 158.965 171.297 158.353C171.561 157.741 171.693 157.039 171.693 156.247C171.693 155.383 171.477 154.705 171.045 154.213C170.613 153.709 170.019 153.457 169.263 153.457ZM181.848 152.431H183.162L179.67 161.377H177.834L174.936 152.431H176.34L178.824 160.315L181.848 152.431ZM188.302 161.521C186.922 161.521 185.836 161.125 185.044 160.333C184.264 159.541 183.874 158.437 183.874 157.021C183.874 156.097 184.06 155.275 184.432 154.555C184.804 153.835 185.308 153.277 185.944 152.881C186.592 152.473 187.324 152.269 188.14 152.269C189.364 152.269 190.306 152.695 190.966 153.547C191.638 154.399 191.878 155.671 191.686 157.363H185.224C185.26 158.323 185.548 159.055 186.088 159.559C186.64 160.063 187.408 160.315 188.392 160.315C188.872 160.315 189.334 160.213 189.778 160.009C190.222 159.793 190.6 159.463 190.912 159.019L191.74 159.775C190.936 160.939 189.79 161.521 188.302 161.521ZM188.158 153.331C187.606 153.331 187.12 153.463 186.7 153.727C186.292 153.991 185.962 154.351 185.71 154.807C185.458 155.251 185.302 155.749 185.242 156.301H190.534C190.582 155.257 190.378 154.501 189.922 154.033C189.466 153.565 188.878 153.331 188.158 153.331ZM201.571 148.057V161.377H200.239L200.293 159.271C199.957 159.967 199.507 160.519 198.943 160.927C198.379 161.323 197.737 161.521 197.017 161.521C196.261 161.521 195.625 161.347 195.109 160.999C194.593 160.639 194.197 160.147 193.921 159.523C193.645 158.887 193.507 158.155 193.507 157.327C193.507 156.331 193.687 155.455 194.047 154.699C194.407 153.931 194.911 153.337 195.559 152.917C196.207 152.485 196.957 152.269 197.809 152.269C198.349 152.269 198.835 152.383 199.267 152.611C199.711 152.839 200.053 153.151 200.293 153.547L200.257 152.431V148.057H201.571ZM197.845 153.457C196.945 153.457 196.225 153.799 195.685 154.483C195.145 155.167 194.875 156.079 194.875 157.219C194.875 158.191 195.079 158.953 195.487 159.505C195.907 160.045 196.477 160.315 197.197 160.315C197.785 160.315 198.313 160.141 198.781 159.793C199.249 159.445 199.615 158.965 199.879 158.353C200.143 157.741 200.275 157.039 200.275 156.247C200.275 155.383 200.059 154.705 199.627 154.213C199.195 153.709 198.601 153.457 197.845 153.457Z" fill="#222A41"/>
<path d="M102.43 117.065V115.385H110.062V85.7209L102.382 90.8569L101.47 89.4169L110.926 82.9849H112.03V115.385H119.518V117.065H102.43ZM138.699 117.401C135.211 117.401 132.475 116.025 130.491 113.273C128.539 110.489 127.563 106.281 127.563 100.649C127.563 97.0009 128.059 93.8169 129.051 91.0969C130.043 88.3769 131.435 86.2649 133.227 84.7609C135.019 83.2569 137.115 82.5049 139.515 82.5049C141.691 82.5049 143.579 83.1769 145.179 84.5209C146.811 85.8329 148.075 87.7529 148.971 90.2809C149.867 92.8089 150.315 95.8329 150.315 99.3529C150.315 103.225 149.819 106.505 148.827 109.193C147.835 111.881 146.459 113.929 144.699 115.337C142.971 116.745 140.971 117.433 138.699 117.401ZM138.699 115.481C141.547 115.481 143.867 114.137 145.659 111.449C147.451 108.761 148.347 104.665 148.347 99.1609C148.347 94.4249 147.547 90.7769 145.947 88.2169C144.347 85.6569 142.203 84.3769 139.515 84.3769C137.563 84.3769 135.835 85.0169 134.331 86.2969C132.827 87.5769 131.659 89.4489 130.827 91.9129C129.995 94.3449 129.579 97.2889 129.579 100.745C129.579 105.737 130.395 109.449 132.027 111.881C133.659 114.281 135.883 115.481 138.699 115.481ZM167.48 117.401C163.992 117.401 161.256 116.025 159.272 113.273C157.32 110.489 156.344 106.281 156.344 100.649C156.344 97.0009 156.84 93.8169 157.832 91.0969C158.824 88.3769 160.216 86.2649 162.008 84.7609C163.8 83.2569 165.896 82.5049 168.296 82.5049C170.472 82.5049 172.36 83.1769 173.96 84.5209C175.592 85.8329 176.856 87.7529 177.752 90.2809C178.648 92.8089 179.096 95.8329 179.096 99.3529C179.096 103.225 178.6 106.505 177.608 109.193C176.616 111.881 175.24 113.929 173.48 115.337C171.752 116.745 169.752 117.433 167.48 117.401ZM167.48 115.481C170.328 115.481 172.648 114.137 174.44 111.449C176.232 108.761 177.128 104.665 177.128 99.1609C177.128 94.4249 176.328 90.7769 174.728 88.2169C173.128 85.6569 170.984 84.3769 168.296 84.3769C166.344 84.3769 164.616 85.0169 163.112 86.2969C161.608 87.5769 160.44 89.4489 159.608 91.9129C158.776 94.3449 158.36 97.2889 158.36 100.745C158.36 105.737 159.176 109.449 160.808 111.881C162.44 114.281 164.664 115.481 167.48 115.481ZM191.75 96.1369C189.702 96.1369 188.054 95.5609 186.806 94.4089C185.558 93.2249 184.934 91.7049 184.934 89.8489C184.934 87.7369 185.606 86.0089 186.95 84.6649C188.294 83.2889 190.054 82.6009 192.23 82.6009C194.214 82.6009 195.814 83.1769 197.03 84.3289C198.246 85.4809 198.854 87.0009 198.854 88.8889C198.854 90.2329 198.55 91.4649 197.942 92.5849C197.334 93.6729 196.486 94.5369 195.398 95.1769C194.31 95.8169 193.094 96.1369 191.75 96.1369ZM188.006 117.065L207.446 82.9849H209.318L189.878 117.065H188.006ZM191.75 94.6009C193.318 94.6009 194.614 94.0729 195.638 93.0169C196.662 91.9289 197.174 90.5849 197.174 88.9849C197.174 87.5129 196.726 86.3289 195.83 85.4329C194.934 84.5369 193.734 84.0889 192.23 84.0889C190.502 84.0889 189.126 84.6489 188.102 85.7689C187.11 86.8569 186.614 88.2169 186.614 89.8489C186.614 91.2569 187.078 92.4089 188.006 93.3049C188.934 94.1689 190.182 94.6009 191.75 94.6009ZM205.238 117.353C203.222 117.353 201.59 116.777 200.342 115.625C199.094 114.473 198.47 112.953 198.47 111.065C198.47 108.953 199.142 107.225 200.486 105.881C201.83 104.505 203.59 103.817 205.766 103.817C207.75 103.817 209.35 104.393 210.566 105.545C211.782 106.697 212.39 108.217 212.39 110.105C212.39 111.449 212.07 112.681 211.43 113.801C210.822 114.889 209.974 115.753 208.886 116.393C207.83 117.033 206.614 117.353 205.238 117.353ZM205.286 115.817C206.854 115.817 208.15 115.289 209.174 114.233C210.198 113.177 210.71 111.849 210.71 110.249C210.71 108.777 210.246 107.593 209.318 106.697C208.422 105.801 207.238 105.353 205.766 105.353C204.038 105.353 202.662 105.897 201.638 106.985C200.646 108.073 200.15 109.433 200.15 111.065C200.15 112.473 200.614 113.625 201.542 114.521C202.47 115.385 203.718 115.817 205.286 115.817Z" fill="#459EFF"/>
<defs>
<filter id="filter0_d" x="0" y="0" width="313" height="240" filterUnits="userSpaceOnUse" color-interpolation-filters="sRGB">
<feFlood flood-opacity="0" result="BackgroundImageFix"/>
<feColorMatrix in="SourceAlpha" type="matrix" values="0 0 0 0 0 0 0 0 0 0 0 0 0 0 0 0 0 0 127 0"/>
<feOffset dy="2"/>
<feGaussianBlur stdDeviation="15"/>
<feColorMatrix type="matrix" values="0 0 0 0 0.268807 0 0 0 0 0.618425 0 0 0 0 1 0 0 0 0.2 0"/>
<feBlend mode="normal" in2="BackgroundImageFix" result="effect1_dropShadow"/>
<feBlend mode="normal" in="SourceGraphic" in2="effect1_dropShadow" result="shape"/>
</filter>
</defs>
</svg>
