<svg width="60" height="60" viewBox="0 0 60 60" fill="none" xmlns="http://www.w3.org/2000/svg">
<path fill-rule="evenodd" clip-rule="evenodd" d="M44 16C44 23.732 37.732 30 30 30C22.268 30 16 23.732 16 16C16 8.268 22.268 2 30 2C37.732 2 44 8.268 44 16Z" stroke="#333333" stroke-width="3" stroke-linecap="round" stroke-linejoin="round"/>
<path d="M33.836 11.7881C33.412 10.5161 32.212 9.6001 30.8 9.6001H29.2C27.434 9.6001 26 11.0321 26 12.8001C26 14.5681 27.434 16.0001 29.2 16.0001H30.8C32.566 16.0001 34 17.4321 34 19.2001C34 20.9681 32.566 22.4001 30.8 22.4001H29.2C27.748 22.4001 26.522 21.4321 26.13 20.1061" stroke="#008AD0" stroke-width="3" stroke-linecap="round" stroke-linejoin="round"/>
<path d="M30 23L30 25" stroke="#008AD0" stroke-width="3" stroke-linecap="round" stroke-linejoin="round"/>
<path d="M30 7.03982L30 9.03982" stroke="#008AD0" stroke-width="3" stroke-linecap="round" stroke-linejoin="round"/>
<path d="M23.4882 48H30.0002C32.2082 48 34.0002 46.208 34.0002 44C34.0002 41.792 32.2082 40 30.0002 40H20.0002C20.0002 40 14.0002 36 10.0002 36C6.00021 36 2.00021 40 2.00021 40V58H34.0002L58.0002 44C58.0002 41.146 55.0962 39.21 52.4602 40.308L34.0002 48H18.0002" stroke="#333333" stroke-width="3" stroke-linecap="round" stroke-linejoin="round"/>
</svg>
